<?xml version="1.0" encoding="UTF-8" standalone="no"?>
<svg width="120.40083" height="121.01751" xmlns="http://www.w3.org/2000/svg">
  <path style="fill: #fff;"
     d="m 93.569296,115.69721 c -3.72074,-0.53153 -7.02806,-2.00802 -9.86291,-4.42945 -1.12213,-1.00401 -2.30331,-2.36237 -3.54356,-4.07509 -1.71272,-2.42143 -3.07109,-4.19321 -3.95698,-5.31534 -10.27632,-12.0481 -22.44254,-19.84393 -36.4396,-23.38749 -6.55558,-1.5946 -12.46152,-1.8899 -17.77686,-0.82683 -5.61064,1.12213 -10.09915,3.60262 -13.3474104,7.55959 C 18.563936,64.9062 24.115516,53.5668 25.296706,51.26349 c 3.36638,-6.55558 9.15419,-9.98103 17.30438,-10.33538 2.59861,-0.0591 5.72876,0.11812 9.39043,0.64965 4.66568,0.70871 7.02806,1.06307 7.14618,1.06307 6.37841,0.41341 11.57563,-1.47649 15.65072,-5.66969 4.07509,-4.19321 5.84688,-9.44949 5.19722,-15.70978 21.615724,43.52672 32.836984,66.26456 33.663814,68.21352 1.94896,4.60663 2.00802,9.27231 0.29529,13.938 -1.71272,4.72475 -4.84287,8.20925 -9.39043,10.4535 -3.4845,1.71272 -7.146184,2.36237 -10.985044,1.83084 z M 81.757446,13.34741 C 79.690366,9.27232 76.737406,6.02405 72.839486,3.60262 69.000626,1.18119 64.748356,0 60.082676,0 c -4.60663,0 -8.8589,1.18119 -12.69775,3.60262 -3.83886,2.42143 -6.79182,5.66969 -8.8589,9.74479 l -0.0591,0.17718 C 15.020376,60.65393 2.8541556,85.28167 1.9092056,87.46687 c -2.42142996,5.84688 -2.53954996,11.81186 -0.35436,17.77686 2.24425,5.96499 6.20123,10.33538 11.8709304,13.17023 5.49252,2.77579 11.16221,3.30732 17.06814,1.71272 5.90593,-1.5946 10.51256,-4.96099 13.87894,-10.09915 3.72074,-5.66969 8.97702,-8.50454 15.76884,-8.50454 6.79182,0 12.0481,2.83485 15.76884,8.50454 4.7838,7.2643 11.51657,10.92597 20.19829,10.92597 8.622664,0 15.296364,-3.60262 20.080174,-10.80785 4.7838,-7.20524 5.49252,-14.76483 2.12614,-22.67878 -0.94495,-2.24425 -13.11117,-26.87199 -36.498664,-73.94228 z" />
</svg>
